Coordinates
version=1
nRows=29
nColumns=24
inDegrees=yes

Units are S.I. units (second, meters, Newtons, ...)
Angles are in degrees.

endheader
time	pelvis_tilt	pelvis_list	pelvis_rotation	pelvis_tx	pelvis_ty	pelvis_tz	hip_flexion_r	hip_adduction_r	hip_rotation_r	knee_angle_r	ankle_angle_r	subtalar_angle_r	mtp_angle_r	hip_flexion_l	hip_adduction_l	hip_rotation_l	knee_angle_l	ankle_angle_l	subtalar_angle_l	mtp_angle_l	lumbar_extension	lumbar_bending	lumbar_rotation
      1.38300000	      1.46348103	      6.29198809	     -5.05247163	      0.21718936	      1.02082031	      0.26021781	     11.37696869	     -6.82536493	     -0.39240158	    -64.31944232	      3.50704008	    -16.48001930	     -0.57845576	      5.65393929	     10.60082917	      0.33668683	     -8.82872764	      0.69234561	    -17.12882862	      1.14553005	     -4.01947033	     -8.53936846	      6.04989501
      1.38716667	      1.43039813	      6.15675559	     -4.91838558	      0.22224827	      1.02151568	      0.25999961	     11.91096903	     -6.63706614	     -0.43016541	    -63.90558152	      3.76866422	    -16.47168688	     -0.58163200	      5.18492180	     10.49894191	      0.52318264	     -8.51541299	      0.76912074	    -17.08123846	      1.11591282	     -4.05463507	     -8.38534181	      5.84711973
      1.39133333	      1.41093639	      6.02249156	     -4.77395161	      0.22731970	      1.02219461	      0.25977409	     12.41163447	     -6.45792412	     -0.48750122	    -63.43393088	      4.00093288	    -16.44576737	     -0.58668787	      4.69385465	     10.39812467	      0.72891011	     -8.18929196	      0.86497280	    -17.05488549	      1.07784614	     -4.08979368	     -8.24581619	      5.56544001
      1.39550000	      1.38058868	      5.88976029	     -4.62999136	      0.23239329	      1.02282447	      0.25955942	     12.91325488	     -6.28071392	     -0.54634585	    -62.91627782	      4.25207247	    -16.44034492	     -0.58748651	      4.22139812	     10.29072179	      0.88279064	     -7.87192536	      0.93911133	    -16.97944746	      1.05833250	     -4.10144752	     -8.09252389	      5.40650315
      1.39966667	      1.39509843	      5.76811106	     -4.47205984	      0.23742465	      1.02347874	      0.25932441	     13.35432319	     -6.12705850	     -0.62335833	    -62.34941706	      4.44493236	    -16.40333510	     -0.59620495	      3.68927110	     10.20265607	      1.12135875	     -7.52812804	      1.03492440	    -16.97568308	      1.00654764	     -4.18819542	     -7.97198178	      5.01185633
      1.40383333	      1.36604797	      5.63900286	     -4.31114082	      0.24246463	      1.02403879	      0.25909913	     13.82867265	     -5.95982532	     -0.69859227	    -61.73522932	      4.63859083	    -16.38677785	     -0.60533255	      3.21420760	     10.09627880	      1.32274656	     -7.20447982	      1.12198499	    -16.93413876	      0.95556363	     -4.21731282	     -7.83164120	      4.74561024
      1.40800000	      1.34558323	      5.50843014	     -4.14281649	      0.24749567	      1.02458842	      0.25887829	     14.27709697	     -5.79454126	     -0.78421049	    -61.06958298	      4.81651183	    -16.37804597	     -0.61493041	      2.73201728	      9.98405686	      1.51714963	     -6.88142874	      1.20978125	    -16.87418616	      0.90585520	     -4.25781814	     -7.68967266	      4.47426247
      1.41216667	      1.29950721	      5.38182385	     -3.97061279	      0.25251509	      1.02504725	      0.25867773	     14.74235002	     -5.62988265	     -0.86788409	    -60.36423223	      5.00550086	    -16.36634935	     -0.61995651	      2.29062767	      9.86812235	      1.68734454	     -6.58027840	      1.28380482	    -16.78654155	      0.87766853	     -4.26523452	     -7.56110177	      4.28675351
      1.41633333	      1.30034288	      5.26933344	     -3.79472218	      0.25751636	      1.02552289	      0.25845093	     15.14792202	     -5.49649299	     -0.96657090	    -59.62271693	      5.13834769	    -16.37640151	     -0.63444933	      1.78614137	      9.77267892	      1.90623268	     -6.24977290	      1.38767455	    -16.74784263	      0.82254233	     -4.33885823	     -7.43821741	      3.89765262
      1.42050000	      1.27831533	      5.16089653	     -3.61517412	      0.26252086	      1.02592796	      0.25823663	     15.56445432	     -5.36633384	     -1.06605910	    -58.83892666	      5.28051430	    -16.37680737	     -0.64796712	      1.31630131	      9.67409479	      2.09758061	     -5.93580066	      1.47478248	    -16.68598376	      0.77174447	     -4.37466555	     -7.32029112	      3.62488998
      1.42466667	      1.25742214	      5.04875848	     -3.43166817	      0.26751040	      1.02629784	      0.25803293	     15.96397733	     -5.23465668	     -1.17098919	    -58.01012523	      5.40409042	    -16.38419525	     -0.66170522	      0.84939324	      9.56733252	      2.28756052	     -5.62668641	      1.56597705	    -16.61805781	      0.72405490	     -4.41651085	     -7.20004331	      3.34761215
      1.42883333	      1.22462764	      4.93335959	     -3.24224474	      0.27250102	      1.02662295	      0.25783276	     16.35856214	     -5.09942329	     -1.27811793	    -57.13431938	      5.50423148	    -16.40761442	     -0.67695435	      0.39956529	      9.45237231	      2.47716382	     -5.32550486	      1.65895904	    -16.54510005	      0.67675620	     -4.44509837	     -7.07842576	      3.05744633
      1.43300000	      1.21782870	      4.83362806	     -3.05352465	      0.27747426	      1.02693313	      0.25764201	     16.71514762	     -4.98803428	     -1.38665493	    -56.22554987	      5.60118061	    -16.41504845	     -0.69249652	     -0.07587506	      9.35247509	      2.66468962	     -5.02201191	      1.74703819	    -16.47198455	      0.62915866	     -4.50540842	     -6.97635753	      2.76117215
      1.43716667	      1.16721069	      4.74151975	     -2.86347933	      0.28243805	      1.02712667	      0.25746761	     17.11130271	     -4.88122408	     -1.48742344	    -55.28823633	      5.68278571	    -16.43326713	     -0.71103212	     -0.49687096	      9.25441516	      2.85374432	     -4.72819512	      1.83075765	    -16.40518444	      0.57401581	     -4.51806813	     -6.88424429	      2.45161702
      1.44133333	      1.14718679	      4.64955304	     -2.67239886	      0.28740740	      1.02734080	      0.25729040	     17.45384213	     -4.78429738	     -1.59990543	    -54.30314755	      5.74296021	    -16.43589355	     -0.72709178	     -0.94969155	      9.15504688	      3.03002099	     -4.43669370	      1.92917072	    -16.32722520	      0.52748905	     -4.55870871	     -6.78920053	      2.17984860
      1.44550000	      1.09558288	      4.56141032	     -2.48143791	      0.29236736	      1.02746003	      0.25713047	     17.81931604	     -4.69001439	     -1.70605599	    -53.28595265	      5.81799985	    -16.40516935	     -0.73506870	     -1.35458710	      9.05371640	      3.18207842	     -4.16692813	      2.00339711	    -16.22941312	      0.50361619	     -4.56372711	     -6.69752928	      1.99843495
      1.44966667	      1.07404737	      4.48237705	     -2.29332418	      0.29732386	      1.02757941	      0.25697728	     18.13862483	     -4.60992549	     -1.80983945	    -52.23290927	      5.82323646	    -16.43306086	     -0.75127151	     -1.80453173	      8.96217988	      3.37204276	     -3.87271235	      2.12186453	    -16.16657635	      0.45615750	     -4.60971722	     -6.62274983	      1.61019191
      1.45383333	      1.04511465	      4.41350241	     -2.10946624	      0.30228068	      1.02764576	      0.25683587	     18.45435582	     -4.54562987	     -1.91559183	    -51.14991732	      5.85008394	    -16.40058012	     -0.76273274	     -2.23847302	      8.87788461	      3.53360178	     -3.58951846	      2.22097743	    -16.09153152	      0.41417535	     -4.63732197	     -6.55448530	      1.34841023
      1.45800000	      0.97247454	      4.34443483	     -1.92708244	      0.30724350	      1.02759855	      0.25670600	     18.80345029	     -4.47812795	     -2.01063533	    -50.03547144	      5.87794251	    -16.34040188	     -0.76822900	     -2.61047289	      8.78910589	      3.67260150	     -3.33572866	      2.30173235	    -15.99827645	      0.39017077	     -4.61587737	     -6.48681672	      1.16659542
      1.46216667	      0.93046883	      4.27843713	     -1.74609122	      0.31221093	      1.02757729	      0.25658297	     19.09903431	     -4.41912691	     -2.10971128	    -48.87692665	      5.86613815	    -16.29430952	     -0.77335335	     -3.02175652	      8.70201446	      3.82298876	     -3.06940046	      2.40566394	    -15.91075657	      0.36512649	     -4.62873688	     -6.41847079	      0.92312648
      1.46633333	      0.88979159	      4.21706393	     -1.57500863	      0.31717504	      1.02751221	      0.25647844	     19.38080684	     -4.36550535	     -2.20148609	    -47.68781435	      5.84314489	    -16.23608235	     -0.77622073	     -3.43477018	      8.61767847	      3.96343238	     -2.79961753	      2.51149887	    -15.82271347	      0.34168761	     -4.64266373	     -6.35885463	      0.68404334
      1.47050000	      0.85246077	      4.18250389	     -1.41122751	      0.32213473	      1.02738132	      0.25639462	     19.65663689	     -4.34231608	     -2.28438503	    -46.49106146	      5.79707062	    -16.20238152	     -0.77558098	     -3.85485035	      8.56094302	      4.11940804	     -2.52055870	      2.63419860	    -15.75672394	      0.29722211	     -4.67120584	     -6.33950578	      0.32554387
      1.47466667	      0.78196043	      4.12552405	     -1.25041993	      0.32712696	      1.02719128	      0.25631106	     19.94094870	     -4.29727943	     -2.37689344	    -45.24243736	      5.76646125	    -16.07693315	     -0.77293334	     -4.22793589	      8.47687598	      4.22823939	     -2.26650750	      2.72828727	    -15.66386633	      0.27733171	     -4.64594362	     -6.28268017	      0.19053308
      1.47883333	      0.71970573	      4.08957137	     -1.09530685	      0.33210816	      1.02695680	      0.25624249	     20.20751030	     -4.27575779	     -2.46118363	    -43.97291950	      5.70778187	    -15.97008708	     -0.76818180	     -4.60751871	      8.41440442	      4.34770319	     -2.01686476	      2.84402207	    -15.57471171	      0.25626557	     -4.62964066	     -6.24773469	     -0.00259795
      1.48300000	      0.67299491	      4.05826388	     -0.95125187	      0.33709228	      1.02670643	      0.25619545	     20.44295559	     -4.25810172	     -2.54035850	    -42.67469832	      5.63390674	    -15.86456745	     -0.75892733	     -5.00661427	      8.35621206	      4.46264472	     -1.76232664	      2.96522471	    -15.48751208	      0.23090974	     -4.63290474	     -6.22497565	     -0.22677085
      1.48716667	      0.60825436	      4.02517120	     -0.81097235	      0.34209951	      1.02639768	      0.25615700	     20.67927266	     -4.23915319	     -2.62060922	    -41.34288980	      5.55228384	    -15.73538918	     -0.74824973	     -5.38321528	      8.29405238	      4.56517069	     -1.51556426	      3.08620480	    -15.39832572	      0.20930206	     -4.60970310	     -6.19579011	     -0.40682602
      1.49133333	      0.57598380	      4.00074631	     -0.68112930	      0.34709355	      1.02608513	      0.25615074	     20.86857659	     -4.22573001	     -2.69156602	    -39.98789949	      5.43928802	    -15.64803499	     -0.72212015	     -5.80276331	      8.23916232	      4.68324819	     -1.25223737	      3.23277570	    -15.30361013	      0.16770003	     -4.64097503	     -6.18687009	     -0.68426061
      1.49550000	      0.48667357	      3.98966293	     -0.56368852	      0.35212552	      1.02563564	      0.25615122	     21.11541426	     -4.23277458	     -2.77893544	    -38.62729354	      5.35552995	    -15.44840469	     -0.70722339	     -6.15083560	      8.19924143	      4.74977894	     -1.00865158	      3.34112449	    -15.21548878	      0.14996288	     -4.58150372	     -6.18568229	     -0.77769218
      1.49966667	      0.43924587	      3.96713338	     -0.43736270	      0.35714427	      1.02523978	      0.25615869	     21.28303975	     -4.22204710	     -2.85656375	    -37.20509076	      5.21404409	    -15.34121782	     -0.66934082	     -6.54535686	      8.14316296	      4.86201634	     -0.76823161	      3.49819027	    -15.11315729	      0.10824723	     -4.58924826	     -6.17165489	     -1.01282042
